<svg width="128" height="128" viewBox="0 0 128 128" fill="none" xmlns="http://www.w3.org/2000/svg">
<path d="M9 19H119V116H9V19Z" fill="#F8FAFC"/>
<path d="M0 110.545C0 79.5975 -2.23517e-08 48.6495 0.0958984 17.533C0.245367 16.9781 0.261626 16.5823 0.358009 16.207C2.34101 8.48561 7.15729 3.38927 14.6894 0.866166C15.9221 0.453228 17.236 0.282613 18.5124 0C48.7551 0 78.9979 7.45058e-09 109.412 0.0974339C114.143 0.70018 118.096 2.52695 121.402 5.70634C124.632 8.81244 126.753 12.532 127.496 16.9896C127.655 17.9396 127.832 18.8864 128 19.8347C128 49.2841 128 78.7334 127.9 108.358C127.334 110.707 127.173 113.008 126.34 115.032C124.151 120.35 120.436 124.328 114.959 126.415C113.268 127.06 111.49 127.478 109.752 128C79.333 128 48.914 128 18.3229 127.902C17.6693 127.777 17.1706 127.822 16.7089 127.712C10.2858 126.182 5.24448 122.742 2.22285 116.774C1.23513 114.822 0.727301 112.628 0 110.545ZM80.5313 44.1209C79.6505 44.1209 78.7558 44.0278 77.8941 44.1562C77.3815 44.2325 76.7098 44.5333 76.4686 44.944C72.8602 51.0877 69.3001 57.2599 65.7766 63.4527C65.5532 63.8453 65.5236 64.5755 65.7406 64.9573C69.2824 71.1902 72.8665 77.3994 76.4915 83.5844C76.717 83.9691 77.3579 84.3281 77.8079 84.331C84.9422 84.3775 92.077 84.3504 99.2114 84.3837C99.9476 84.3871 100.295 84.1084 100.635 83.5152C104.135 77.41 107.646 71.3115 111.196 65.2355C111.635 64.4842 111.608 63.9537 111.173 63.2087C107.645 57.1709 104.155 51.1109 100.692 45.036C100.286 44.3239 99.8272 44.0985 99.0278 44.1028C92.9504 44.1359 86.8727 44.1209 80.5313 44.1209ZM36.1526 103.886C36.5243 104.535 36.9499 105.159 37.2548 105.838C37.6872 106.8 38.336 107.101 39.4058 107.092C46.2759 107.038 53.1467 107.049 60.0171 107.084C60.8719 107.088 61.3451 106.842 61.7792 106.081C65.2638 99.967 68.7886 93.8757 72.3368 87.7984C72.7267 87.1306 72.685 86.6606 72.3078 86.0131C68.7654 79.9328 65.2482 73.8377 61.7581 67.7273C61.3766 67.0594 60.9386 66.8471 60.195 66.8497C53.1484 66.8747 46.1015 66.8843 39.0551 66.84C38.1632 66.8343 37.7302 67.1664 37.318 67.8873C33.8903 73.8812 30.4485 79.8673 26.9573 85.8244C26.4629 86.6679 26.5133 87.2614 26.9919 88.0768C30.042 93.2736 33.0351 98.5037 36.1526 103.886ZM50.6446 21.4214C46.6339 21.4214 42.6231 21.4397 38.6127 21.4043C37.9032 21.3981 37.5265 21.6169 37.1709 22.2388C33.6752 28.3522 30.152 34.45 26.6043 40.5334C26.201 41.225 26.182 41.7398 26.5944 42.4462C30.1448 48.5283 33.664 54.6288 37.1588 60.7429C37.5356 61.4021 37.9507 61.6397 38.706 61.6366C45.7576 61.6084 52.8095 61.6106 59.8611 61.6339C60.5952 61.6363 61.0378 61.4543 61.4273 60.7715C64.938 54.6159 68.4801 48.4781 72.0547 42.3595C72.4532 41.6775 72.3779 41.2129 72.008 40.5771C68.4888 34.5282 64.985 28.47 61.5257 22.3867C61.0907 21.6217 60.6144 21.3863 59.7675 21.4012C56.8155 21.4533 53.862 21.4214 50.6446 21.4214ZM94.3298 33.7982C92.1305 29.9919 89.9115 26.1967 87.7488 22.3697C87.3284 21.6257 86.8656 21.3496 85.9979 21.3532C81.4218 21.3723 76.8454 21.3105 72.2691 21.2871C69.9599 21.2752 67.6506 21.285 65.3159 21.285C65.3585 21.5855 65.3466 21.6843 65.3861 21.7539C68.7676 27.7181 72.1434 33.6857 75.5652 39.6268C75.7484 39.9449 76.3203 40.2102 76.7123 40.2115C83.4024 40.2344 90.0926 40.2116 96.7828 40.199C97.1126 40.1984 97.4424 40.199 98.0029 40.199C96.7258 37.9831 95.57 35.9778 94.3298 33.7982ZM95.5261 92.4922C96.17 91.3725 96.8139 90.2529 97.5284 89.0106C97.1114 88.9505 96.9483 88.9068 96.785 88.9064C90.2705 88.8879 83.7558 88.8914 77.2417 88.8361C76.3987 88.8289 76.1134 89.2772 75.7759 89.8732C72.7653 95.1907 69.7369 100.498 66.7189 105.811C66.5128 106.174 66.3486 106.561 66.1444 106.979C73.0176 106.979 79.7448 106.996 86.4714 106.938C86.8893 106.934 87.4488 106.429 87.6947 106.011C90.304 101.579 92.8631 97.1173 95.5261 92.4922ZM33.071 65.4595C33.9643 64.4163 33.8413 63.4624 33.1281 62.289C30.9348 58.6801 28.8757 54.9898 26.7623 51.3324C25.7404 49.564 24.7138 47.7983 23.6833 46.0208C23.4981 46.1498 23.4004 46.1829 23.3612 46.2502C19.9909 52.0269 16.6151 57.8005 13.2874 63.6017C13.1117 63.908 13.2142 64.5236 13.4097 64.8693C14.8827 67.4733 16.4106 70.0462 17.9232 72.6277C19.7406 75.7294 21.5599 78.8299 23.5049 82.1467C26.7355 76.5179 29.8588 71.0763 33.071 65.4595Z" fill="#00BAE5"/>
</svg>
